<svg xmlns="http://www.w3.org/2000/svg" width="140" height="140"><path fill="#fff" d="M132.375 70c0 34.445-27.922 62.383-62.369 62.383-34.455 0-62.381-27.938-62.381-62.383 0-34.451 27.926-62.383 62.381-62.383 34.447 0 62.369 27.932 62.369 62.383z"/><path fill="#eaf4f9" d="M70.006 7.617c34.447 0 62.369 27.932 62.369 62.383 0 34.445-27.922 62.383-62.369 62.383"/><path fill="none" stroke="#33363a" stroke-linecap="round" stroke-linejoin="round" stroke-miterlimit="10" stroke-width="3" d="M132.375 70c0 34.445-27.922 62.383-62.369 62.383-34.455 0-62.381-27.938-62.381-62.383 0-34.451 27.926-62.383 62.381-62.383 34.447 0 62.369 27.932 62.369 62.383z"/><path fill="#3e77bf" d="M69.998 20.797c-27.176 0-49.215 22.119-49.215 49.414 0 21.828 14.102 40.346 33.666 46.881 2.461.457 3.355-1.07 3.355-2.379 0-1.176-.041-4.281-.068-8.404-13.691 2.988-16.58-6.625-16.58-6.625-2.234-5.707-5.463-7.223-5.463-7.223-4.469-3.068.338-3.008.338-3.008 4.938.35 7.535 5.094 7.535 5.094 4.396 7.551 11.523 5.369 14.328 4.104.445-3.193 1.719-5.371 3.125-6.605-10.928-1.25-22.416-5.484-22.416-24.418 0-5.396 1.914-9.805 5.062-13.264-.508-1.25-2.195-6.271.482-13.072 0 0 4.133-1.328 13.535 5.064 3.928-1.096 8.135-1.643 12.322-1.664 4.178.021 8.389.568 12.322 1.664 9.391-6.393 13.52-5.064 13.52-5.064 2.686 6.801.994 11.822.486 13.072 3.156 3.459 5.062 7.867 5.062 13.264 0 18.979-11.508 23.156-22.475 24.379 1.768 1.525 3.342 4.543 3.342 9.154 0 6.604-.061 11.93-.061 13.553 0 1.322.887 2.859 3.383 2.373 19.543-6.547 33.629-25.053 33.629-46.875.003-27.296-22.034-49.415-49.214-49.415z"/><path fill="#3e77bf" d="M69.998 20.797c-27.176 0-49.215 22.119-49.215 49.414 0 21.828 14.102 40.346 33.666 46.881 2.461.457 3.355-1.07 3.355-2.379 0-1.176-.041-4.281-.068-8.404-13.691 2.988-16.58-6.625-16.58-6.625-2.234-5.707-5.463-7.223-5.463-7.223-4.469-3.068.338-3.008.338-3.008 4.938.35 7.535 5.094 7.535 5.094 4.396 7.551 11.523 5.369 14.328 4.104.445-3.193 1.719-5.371 3.125-6.605-10.928-1.25-22.416-5.484-22.416-24.418 0-5.396 1.914-9.805 5.062-13.264-.508-1.25-2.195-6.271.482-13.072 0 0 4.133-1.328 13.535 5.064 3.928-1.096 8.135-1.643 12.322-1.664 4.178.021 8.389.568 12.322 1.664 9.391-6.393 13.52-5.064 13.52-5.064 2.686 6.801.994 11.822.486 13.072 3.156 3.459 5.062 7.867 5.062 13.264 0 18.979-11.508 23.156-22.475 24.379 1.768 1.525 3.342 4.543 3.342 9.154 0 6.604-.061 11.93-.061 13.553 0 1.322.887 2.859 3.383 2.373 19.543-6.547 33.629-25.053 33.629-46.875.003-27.296-22.034-49.415-49.214-49.415z"/><path fill="#569fef" d="M69.998 20.797c-27.176 0-49.215 22.119-49.215 49.414 0 21.828 14.102 40.346 33.666 46.881 2.461.457 3.355-1.07 3.355-2.379 0-1.176-.041-4.281-.068-8.404-13.691 2.988-16.58-6.625-16.58-6.625-2.234-5.707-5.463-7.223-5.463-7.223-4.469-3.068.338-3.008.338-3.008 4.938.35 7.535 5.094 7.535 5.094 4.396 7.551 11.523 5.369 14.328 4.104.445-3.193 1.719-5.371 3.125-6.605-10.928-1.25-22.416-5.484-22.416-24.418 0-5.396 1.914-9.805 5.062-13.264-.508-1.25-2.195-6.271.482-13.072 0 0 4.133-1.328 13.535 5.064 3.928-1.096 8.135-1.643 12.322-1.664V20.797h-.006z"/><path fill="#6ca9ea" d="M45.863 97.443a12.11 12.11 0 0 0-1.771-2.094c.56.829 1.154 1.524 1.771 2.094z"/><path fill="#33363a" d="M69.998 23.797c25.484 0 46.217 20.821 46.217 46.414 0 19.805-12.436 37.344-31.01 43.835l.014-2.058c.018-2.55.045-6.402.045-10.828 0-2.543-.438-4.896-1.254-6.906 3.98-.821 8.473-2.356 12.191-5.482 5.438-4.569 8.195-11.684 8.195-21.145 0-5.278-1.579-9.956-4.697-13.929.7-2.679 1.29-7.554-1.062-13.509a3 3 0 0 0-1.871-1.754c-.3-.096-.961-.258-2.015-.258-2.471 0-6.683.88-12.963 4.937-3.748-.923-7.702-1.401-11.799-1.422-4.074.021-8.025.499-11.77 1.421-6.287-4.056-10.502-4.936-12.975-4.936-1.055 0-1.715.162-2.016.258a3 3 0 0 0-1.873 1.757c-2.346 5.958-1.756 10.831-1.057 13.508-3.118 3.98-4.697 8.657-4.697 13.927 0 5.661 0 22.115 20.371 26.622a15.692 15.692 0 0 0-.709 2.198c-.851.268-1.903.499-3.004.499-2.571 0-4.564-1.274-6.095-3.896-.374-.655-3.684-6.148-9.924-6.59a2.65 2.65 0 0 0-.177-.008h-.055c-2.65 0-4.494 1.048-5.061 2.874-.9 2.898 2.068 4.938 3.044 5.606.169.116.216.156.389.229.31.183 2.353 1.505 3.952 5.549.443 1.288 3.598 9.174 14.442 9.174.646 0 1.308-.029 1.985-.088l.018 1.91c.01.958.017 1.748.021 2.335-18.581-6.486-31.019-24.021-31.019-43.831.004-25.592 20.737-46.413 46.219-46.413m0-3c-27.176 0-49.215 22.119-49.215 49.414 0 21.828 14.102 40.346 33.666 46.881.305.057.585.083.842.083 1.827 0 2.514-1.315 2.514-2.462 0-1.176-.041-4.281-.068-8.404-1.841.401-3.488.576-4.958.576-9.46 0-11.622-7.201-11.622-7.201-2.234-5.707-5.463-7.223-5.463-7.223-4.299-2.952-.014-3.008.318-3.008h.02c4.938.35 7.535 5.094 7.535 5.094 2.456 4.218 5.765 5.399 8.695 5.399 2.315 0 4.395-.737 5.633-1.296.445-3.193 1.719-5.371 3.125-6.605-10.928-1.25-22.416-5.484-22.416-24.418 0-5.396 1.914-9.805 5.062-13.264-.508-1.25-2.195-6.271.482-13.072 0 0 .356-.114 1.098-.114 1.783 0 5.795.663 12.438 5.179 3.928-1.096 8.135-1.643 12.322-1.664 4.178.021 8.389.568 12.322 1.664 6.634-4.516 10.642-5.179 12.424-5.179.74 0 1.096.114 1.096.114 2.686 6.801.994 11.822.486 13.072 3.156 3.459 5.062 7.867 5.062 13.264 0 18.979-11.508 23.156-22.475 24.379 1.768 1.525 3.342 4.543 3.342 9.154 0 6.604-.061 11.93-.061 13.553 0 1.151.672 2.465 2.493 2.465.271 0 .566-.029.89-.092 19.543-6.547 33.629-25.053 33.629-46.875.001-27.295-22.036-49.414-49.216-49.414z"/><path fill="#33363a" d="M69.998 23.797c25.484 0 46.217 20.821 46.217 46.414 0 19.805-12.436 37.344-31.01 43.835l.014-2.058c.018-2.55.045-6.402.045-10.828 0-2.543-.438-4.896-1.254-6.906 3.98-.821 8.473-2.356 12.191-5.482 5.438-4.569 8.195-11.684 8.195-21.145 0-5.278-1.579-9.956-4.697-13.929.7-2.679 1.29-7.554-1.062-13.509a3 3 0 0 0-1.871-1.754c-.3-.096-.961-.258-2.015-.258-2.471 0-6.683.88-12.963 4.937-3.748-.923-7.702-1.401-11.799-1.422-4.074.021-8.025.499-11.77 1.421-6.287-4.056-10.502-4.936-12.975-4.936-1.055 0-1.715.162-2.016.258a3 3 0 0 0-1.873 1.757c-2.346 5.958-1.756 10.831-1.057 13.508-3.118 3.98-4.697 8.657-4.697 13.927 0 5.661 0 22.115 20.371 26.622a15.692 15.692 0 0 0-.709 2.198c-.851.268-1.903.499-3.004.499-2.571 0-4.564-1.274-6.095-3.896-.374-.655-3.684-6.148-9.924-6.59a2.65 2.65 0 0 0-.177-.008h-.055c-2.65 0-4.494 1.048-5.061 2.874-.9 2.898 2.068 4.938 3.044 5.606.169.116.216.156.389.229.31.183 2.353 1.505 3.952 5.549.443 1.288 3.598 9.174 14.442 9.174.646 0 1.308-.029 1.985-.088l.018 1.91c.01.958.017 1.748.021 2.335-18.581-6.486-31.019-24.021-31.019-43.831.004-25.592 20.737-46.413 46.219-46.413m0-3c-27.176 0-49.215 22.119-49.215 49.414 0 21.828 14.102 40.346 33.666 46.881.305.057.585.083.842.083 1.827 0 2.514-1.315 2.514-2.462 0-1.176-.041-4.281-.068-8.404-1.841.401-3.488.576-4.958.576-9.46 0-11.622-7.201-11.622-7.201-2.234-5.707-5.463-7.223-5.463-7.223-4.299-2.952-.014-3.008.318-3.008h.02c4.938.35 7.535 5.094 7.535 5.094 2.456 4.218 5.765 5.399 8.695 5.399 2.315 0 4.395-.737 5.633-1.296.445-3.193 1.719-5.371 3.125-6.605-10.928-1.25-22.416-5.484-22.416-24.418 0-5.396 1.914-9.805 5.062-13.264-.508-1.25-2.195-6.271.482-13.072 0 0 .356-.114 1.098-.114 1.783 0 5.795.663 12.438 5.179 3.928-1.096 8.135-1.643 12.322-1.664 4.178.021 8.389.568 12.322 1.664 6.634-4.516 10.642-5.179 12.424-5.179.74 0 1.096.114 1.096.114 2.686 6.801.994 11.822.486 13.072 3.156 3.459 5.062 7.867 5.062 13.264 0 18.979-11.508 23.156-22.475 24.379 1.768 1.525 3.342 4.543 3.342 9.154 0 6.604-.061 11.93-.061 13.553 0 1.151.672 2.465 2.493 2.465.271 0 .566-.029.89-.092 19.543-6.547 33.629-25.053 33.629-46.875.001-27.295-22.036-49.414-49.216-49.414z"/><path fill="#33363a" d="M44.092 95.35a12.028 12.028 0 0 0 1.771 2.094 12.072 12.072 0 0 0-1.771-2.094z"/></svg>